<?xml version="1.0" encoding="utf-8"?>
<!-- Generator: Adobe Illustrator 25.2.3, SVG Export Plug-In . SVG Version: 6.00 Build 0)  -->
<svg version="1.1" id="Layer_1" xmlns="http://www.w3.org/2000/svg" xmlns:xlink="http://www.w3.org/1999/xlink" x="0px" y="0px"
	 viewBox="0 0 16 16" style="enable-background:new 0 0 16 16;" xml:space="preserve">
<path d="M10.8,5.2c0.2,0.2,0.2,0.5,0,0.7L8.7,8l2.1,2.1c0.2,0.2,0.2,0.5,0,0.7c-0.2,0.2-0.5,0.2-0.7,0L8,8.7l-2.1,2.1
	c-0.2,0.2-0.5,0.2-0.7,0c-0.2-0.2-0.2-0.5,0-0.7L7.3,8L5.2,5.9C5,5.7,5,5.4,5.2,5.2C5.4,5,5.7,5,5.9,5.2L8,7.3l2.1-2.1
	C10.3,5,10.6,5,10.8,5.2z"/>
</svg>
